<svg fill="none" height="2039" viewBox="0 0 2101 2039" width="2101" xmlns="http://www.w3.org/2000/svg" xmlns:xlink="http://www.w3.org/1999/xlink"><linearGradient id="a" gradientUnits="userSpaceOnUse" x1="1171.07" x2="1002.01" y1="705.094" y2="1281.33"><stop offset="0" stop-color="#ff3091"/><stop offset=".494792" stop-color="#fd8dff"/><stop offset=".664694" stop-color="#8c00ff"/><stop offset="1" stop-color="#4b0089"/></linearGradient><path d="m1239 1026.97 55.03 69.53-164.74 200.92m109.71-270.45 175.08-126.037m-175.08 126.037-254.358 165.45m-138.027-26.27 121.35 37.12 16.677-10.85m-138.027-26.27-60.195-111.73 9.858-24.72m50.337 136.45-226.914 144.37 67.246 200.87 168.992 152.9 37.867-165.04m12.373-745.167-78.959-40.326-164.739 200.923m243.698-160.597 76.927-238.223-157.147 16.502m80.22 221.721-109.901 275.617m109.901-275.617-4.989 323.537m-238.709-162.94-36.505-303.701m36.505 303.701-475.473-170.2 218.439-271.714 220.529 138.213m0 0 199.983-78.617m186.411-93.169-186.411 93.169m186.411-93.169 70.47-185.508-353.745-120.947 96.864 399.624m186.411-93.169 58.15 191.471 58.15 191.471m-116.3-382.942 206.08 7.464 69.41 177.465m-159.19 198.013 381.37 28.528m-381.37-28.528-227.48 255.485m227.48-255.485 159.19-198.013m222.18 226.541-26.61 266.127m26.61-266.127.45-89.737-222.63-136.804m222.18 226.541 292.15-18.665 14.29 326.192-333.05-41.4m-12.75 127.57-341.39 53.06m341.39-53.06 12.75-127.57m-12.75 127.57 99.52 473.41-421.74-72.6m-19.17-347.75 19.17 347.75m-19.17-347.75-201.019-34.88-34.465 236.71m520.274-598.317 69.35 215.857m-69.35-215.857-512.89 176.687m-104.912-47.92 104.912 47.92m0 0 83.452 114.8m163.818 452.75-254.654-145.92" opacity=".2" stroke="url(#a)" stroke-width="2.23255"/></svg>